# xmcd
#
# Track frame offsets: 
#        150
#        16115
#        32551
#        46938
#        67757
#        83990
#        100994
#        116156
#        128345
#        148802
#        167895
#
# Disc length: 2501 seconds
#
# Revision: 0
# Processed by: cddbd v1.5.2PL0 Copyright (c) Steve Scherf et al.
# Submitted via: ExactAudioCopy v1.3
#
DISCID=8809c30b
DTITLE=Hans Bollandsås - Victory Today
DYEAR=2011
DGENRE=Pop
TTITLE0=Moments
TTITLE1=Convertible candy
TTITLE2=Victory Today
TTITLE3=You And I
TTITLE4=Hoochie Coochie Man
TTITLE5=Yet Another Day
TTITLE6=Too Long Now
TTITLE7=Do You Want Me
TTITLE8=Rescue Me
TTITLE9=The Last Time
TTITLE10=Nobody's Fault But Mine
EXTD=
EXTT0=
EXTT1=
EXTT2=
EXTT3=
EXTT4=
EXTT5=
EXTT6=
EXTT7=
EXTT8=
EXTT9=
EXTT10=
PLAYORDER=
